<mxfile host="app.diagrams.net" agent="Mozilla/5.0 (Windows NT 10.0; Win64; x64) AppleWebKit/537.36 (KHTML, like Gecko) Chrome/137.0.0.0 Safari/537.36 Edg/137.0.0.0" version="27.1.4">
  <diagram name="Page-1" id="eEdTagN8s7qVAfyuvcJ_">
    <mxGraphModel dx="2540" dy="2664" grid="1" gridSize="10" guides="1" tooltips="1" connect="1" arrows="1" fold="1" page="1" pageScale="1" pageWidth="827" pageHeight="1169" math="0" shadow="0">
      <root>
        <mxCell id="WIyWlLk6GJQsqaUBKTNV-0" />
        <mxCell id="WIyWlLk6GJQsqaUBKTNV-1" parent="WIyWlLk6GJQsqaUBKTNV-0" />
        <mxCell id="2UTO8eHYLIyQ8lcOq1nl-0" value="USERS" style="swimlane;fontStyle=0;childLayout=stackLayout;horizontal=1;startSize=26;fillColor=none;horizontalStack=0;resizeParent=1;resizeParentMax=0;resizeLast=0;collapsible=1;marginBottom=0;whiteSpace=wrap;html=1;" parent="WIyWlLk6GJQsqaUBKTNV-1" vertex="1">
          <mxGeometry x="90" y="-1110" width="250" height="450" as="geometry" />
        </mxCell>
        <mxCell id="2UTO8eHYLIyQ8lcOq1nl-1" value="&lt;font style=&quot;color: rgb(255, 0, 0);&quot;&gt;+ Id: BIGINT&lt;/font&gt;&lt;div&gt;&lt;br&gt;&lt;/div&gt;&lt;div&gt;+ Name: VARCHAR(255)&lt;br&gt;&lt;div&gt;&lt;br&gt;&lt;/div&gt;&lt;/div&gt;" style="text;strokeColor=none;fillColor=none;align=left;verticalAlign=top;spacingLeft=4;spacingRight=4;overflow=hidden;rotatable=0;points=[[0,0.5],[1,0.5]];portConstraint=eastwest;whiteSpace=wrap;html=1;" parent="2UTO8eHYLIyQ8lcOq1nl-0" vertex="1">
          <mxGeometry y="26" width="250" height="54" as="geometry" />
        </mxCell>
        <mxCell id="2UTO8eHYLIyQ8lcOq1nl-3" value="+ Email: VARCHAR(255)&lt;div&gt;&lt;br&gt;&lt;/div&gt;&lt;div&gt;+ Password: VARCHAR(255)&lt;/div&gt;&lt;div&gt;&lt;br&gt;&lt;/div&gt;&lt;div&gt;+ Phone: BIGINT&lt;/div&gt;&lt;div&gt;&lt;br&gt;&lt;/div&gt;&lt;div&gt;+ Age: INT&lt;/div&gt;&lt;div&gt;&lt;br&gt;&lt;/div&gt;&lt;div&gt;+ Gender: ENUME (&#39;MALE&#39;, &#39;FEMALE&#39;, &#39;OTHER&#39;)&lt;/div&gt;&lt;div&gt;+ Birthdate: DATE&lt;/div&gt;&lt;div&gt;&lt;br&gt;&lt;/div&gt;&lt;div&gt;+ &lt;font style=&quot;color: rgb(51, 153, 255);&quot;&gt;RoleId: BIGINT&lt;/font&gt;&lt;/div&gt;&lt;div&gt;&lt;br&gt;&lt;/div&gt;&lt;div&gt;+ Avatar: VARCHAR(255)&lt;/div&gt;&lt;div&gt;&lt;br&gt;&lt;/div&gt;&lt;div&gt;+ RefreshToken: VARCHAR(255)&lt;/div&gt;&lt;div&gt;&lt;br&gt;&lt;/div&gt;&lt;div&gt;+ CreateAt: DATETIME&lt;/div&gt;&lt;div&gt;&lt;br&gt;&lt;/div&gt;&lt;div&gt;+ CreateBy: VARCHAR(255)&lt;/div&gt;&lt;div&gt;&lt;br&gt;&lt;/div&gt;&lt;div&gt;+ UpdateAt: DATETIME&lt;/div&gt;&lt;div&gt;&lt;br&gt;&lt;/div&gt;&lt;div&gt;+ UpdateBy: VARCHAR(255)&lt;/div&gt;&lt;div&gt;&lt;br&gt;&lt;/div&gt;" style="text;strokeColor=none;fillColor=none;align=left;verticalAlign=top;spacingLeft=4;spacingRight=4;overflow=hidden;rotatable=0;points=[[0,0.5],[1,0.5]];portConstraint=eastwest;whiteSpace=wrap;html=1;" parent="2UTO8eHYLIyQ8lcOq1nl-0" vertex="1">
          <mxGeometry y="80" width="250" height="370" as="geometry" />
        </mxCell>
        <mxCell id="2UTO8eHYLIyQ8lcOq1nl-4" value="PRODUCTS" style="swimlane;fontStyle=0;childLayout=stackLayout;horizontal=1;startSize=26;fillColor=none;horizontalStack=0;resizeParent=1;resizeParentMax=0;resizeLast=0;collapsible=1;marginBottom=0;whiteSpace=wrap;html=1;" parent="WIyWlLk6GJQsqaUBKTNV-1" vertex="1">
          <mxGeometry x="795" y="-30" width="190" height="326" as="geometry" />
        </mxCell>
        <mxCell id="2UTO8eHYLIyQ8lcOq1nl-5" value="&lt;span style=&quot;color: rgb(255, 0, 0);&quot;&gt;+ Id: BIGINT&lt;/span&gt;" style="text;strokeColor=none;fillColor=none;align=left;verticalAlign=top;spacingLeft=4;spacingRight=4;overflow=hidden;rotatable=0;points=[[0,0.5],[1,0.5]];portConstraint=eastwest;whiteSpace=wrap;html=1;" parent="2UTO8eHYLIyQ8lcOq1nl-4" vertex="1">
          <mxGeometry y="26" width="190" height="26" as="geometry" />
        </mxCell>
        <mxCell id="2UTO8eHYLIyQ8lcOq1nl-6" value="+ Name: VARCHAR(255)" style="text;strokeColor=none;fillColor=none;align=left;verticalAlign=top;spacingLeft=4;spacingRight=4;overflow=hidden;rotatable=0;points=[[0,0.5],[1,0.5]];portConstraint=eastwest;whiteSpace=wrap;html=1;" parent="2UTO8eHYLIyQ8lcOq1nl-4" vertex="1">
          <mxGeometry y="52" width="190" height="26" as="geometry" />
        </mxCell>
        <mxCell id="aSxI8BKwE8xpwClNQIL9-30" value="&lt;font style=&quot;color: rgb(51, 153, 255);&quot;&gt;+ CategoryId: BIGINT&lt;/font&gt;" style="text;strokeColor=none;fillColor=none;align=left;verticalAlign=top;spacingLeft=4;spacingRight=4;overflow=hidden;rotatable=0;points=[[0,0.5],[1,0.5]];portConstraint=eastwest;whiteSpace=wrap;html=1;" parent="2UTO8eHYLIyQ8lcOq1nl-4" vertex="1">
          <mxGeometry y="78" width="190" height="26" as="geometry" />
        </mxCell>
        <mxCell id="2UTO8eHYLIyQ8lcOq1nl-7" value="&lt;div&gt;&lt;span style=&quot;background-color: transparent; color: light-dark(rgb(0, 0, 0), rgb(255, 255, 255));&quot;&gt;+ Image: VARCHAR(255)&lt;/span&gt;&lt;/div&gt;&lt;div&gt;&lt;br&gt;&lt;/div&gt;&lt;div&gt;+ Description: MEDIUMTEXT&lt;/div&gt;&lt;div&gt;&lt;br&gt;&lt;/div&gt;&lt;div&gt;&lt;div&gt;+ CreateAt: DATETIME&lt;/div&gt;&lt;div&gt;&lt;br&gt;&lt;/div&gt;&lt;div&gt;+ CreateBy: VARCHAR(255)&lt;/div&gt;&lt;div&gt;&lt;br&gt;&lt;/div&gt;&lt;div&gt;+ UpdateAt: DATETIME&lt;/div&gt;&lt;div&gt;&lt;br&gt;&lt;/div&gt;&lt;div&gt;+ UpdateBy: VARCHAR(255)&lt;/div&gt;&lt;/div&gt;" style="text;strokeColor=none;fillColor=none;align=left;verticalAlign=top;spacingLeft=4;spacingRight=4;overflow=hidden;rotatable=0;points=[[0,0.5],[1,0.5]];portConstraint=eastwest;whiteSpace=wrap;html=1;" parent="2UTO8eHYLIyQ8lcOq1nl-4" vertex="1">
          <mxGeometry y="104" width="190" height="222" as="geometry" />
        </mxCell>
        <mxCell id="2UTO8eHYLIyQ8lcOq1nl-8" value="SIZES" style="swimlane;fontStyle=0;childLayout=stackLayout;horizontal=1;startSize=26;fillColor=none;horizontalStack=0;resizeParent=1;resizeParentMax=0;resizeLast=0;collapsible=1;marginBottom=0;whiteSpace=wrap;html=1;" parent="WIyWlLk6GJQsqaUBKTNV-1" vertex="1">
          <mxGeometry x="1020" y="36" width="190" height="260" as="geometry" />
        </mxCell>
        <mxCell id="2UTO8eHYLIyQ8lcOq1nl-9" value="&lt;font style=&quot;color: rgb(255, 0, 0);&quot;&gt;+ Id: BIGINT&lt;/font&gt;" style="text;strokeColor=none;fillColor=none;align=left;verticalAlign=top;spacingLeft=4;spacingRight=4;overflow=hidden;rotatable=0;points=[[0,0.5],[1,0.5]];portConstraint=eastwest;whiteSpace=wrap;html=1;" parent="2UTO8eHYLIyQ8lcOq1nl-8" vertex="1">
          <mxGeometry y="26" width="190" height="26" as="geometry" />
        </mxCell>
        <mxCell id="2UTO8eHYLIyQ8lcOq1nl-10" value="+ Name: ENUME(&#39;S&#39;, &#39;L&#39;, &#39;M&#39;, &#39;XL&#39;)&lt;div&gt;&lt;br&gt;&lt;/div&gt;&lt;div&gt;+ Description: MEDIUMTEXT&lt;/div&gt;&lt;div&gt;&lt;br&gt;&lt;/div&gt;&lt;div&gt;&lt;div&gt;+ CreateAt: DATETIME&lt;/div&gt;&lt;div&gt;&lt;br&gt;&lt;/div&gt;&lt;div&gt;+ CreateBy: VARCHAR(255)&lt;/div&gt;&lt;div&gt;&lt;br&gt;&lt;/div&gt;&lt;div&gt;+ UpdateAt: DATETIME&lt;/div&gt;&lt;div&gt;&lt;br&gt;&lt;/div&gt;&lt;div&gt;+ UpdateBy: VARCHAR(255)&lt;/div&gt;&lt;/div&gt;" style="text;strokeColor=none;fillColor=none;align=left;verticalAlign=top;spacingLeft=4;spacingRight=4;overflow=hidden;rotatable=0;points=[[0,0.5],[1,0.5]];portConstraint=eastwest;whiteSpace=wrap;html=1;" parent="2UTO8eHYLIyQ8lcOq1nl-8" vertex="1">
          <mxGeometry y="52" width="190" height="208" as="geometry" />
        </mxCell>
        <mxCell id="2UTO8eHYLIyQ8lcOq1nl-17" value="PRODUCT_SIZE" style="swimlane;fontStyle=0;childLayout=stackLayout;horizontal=1;startSize=26;fillColor=none;horizontalStack=0;resizeParent=1;resizeParentMax=0;resizeLast=0;collapsible=1;marginBottom=0;whiteSpace=wrap;html=1;" parent="WIyWlLk6GJQsqaUBKTNV-1" vertex="1">
          <mxGeometry x="1330" width="220" height="340" as="geometry" />
        </mxCell>
        <mxCell id="2UTO8eHYLIyQ8lcOq1nl-18" value="&lt;span style=&quot;color: rgb(255, 0, 0);&quot;&gt;+ Id: BIGINT&lt;/span&gt;" style="text;strokeColor=none;fillColor=none;align=left;verticalAlign=top;spacingLeft=4;spacingRight=4;overflow=hidden;rotatable=0;points=[[0,0.5],[1,0.5]];portConstraint=eastwest;whiteSpace=wrap;html=1;" parent="2UTO8eHYLIyQ8lcOq1nl-17" vertex="1">
          <mxGeometry y="26" width="220" height="26" as="geometry" />
        </mxCell>
        <mxCell id="2UTO8eHYLIyQ8lcOq1nl-19" value="&lt;font style=&quot;color: rgb(51, 153, 255);&quot;&gt;+ ProductId: BIGINT&lt;/font&gt;" style="text;strokeColor=none;fillColor=none;align=left;verticalAlign=top;spacingLeft=4;spacingRight=4;overflow=hidden;rotatable=0;points=[[0,0.5],[1,0.5]];portConstraint=eastwest;whiteSpace=wrap;html=1;" parent="2UTO8eHYLIyQ8lcOq1nl-17" vertex="1">
          <mxGeometry y="52" width="220" height="26" as="geometry" />
        </mxCell>
        <mxCell id="aSxI8BKwE8xpwClNQIL9-25" value="&lt;font color=&quot;#3399ff&quot;&gt;+ SizeId: BIGINT&lt;/font&gt;" style="text;strokeColor=none;fillColor=none;align=left;verticalAlign=top;spacingLeft=4;spacingRight=4;overflow=hidden;rotatable=0;points=[[0,0.5],[1,0.5]];portConstraint=eastwest;whiteSpace=wrap;html=1;" parent="2UTO8eHYLIyQ8lcOq1nl-17" vertex="1">
          <mxGeometry y="78" width="220" height="26" as="geometry" />
        </mxCell>
        <mxCell id="2UTO8eHYLIyQ8lcOq1nl-20" value="&lt;div&gt;&lt;span style=&quot;background-color: transparent; color: light-dark(rgb(0, 0, 0), rgb(255, 255, 255));&quot;&gt;+ Price: DECIMAL&lt;/span&gt;&lt;/div&gt;&lt;div&gt;&lt;br&gt;&lt;/div&gt;&lt;div&gt;+ StockQuantity: INT&lt;/div&gt;&lt;div&gt;&lt;br&gt;&lt;/div&gt;&lt;div&gt;+ Status: ENUM(&#39;AVAILABLE&#39;, &#39;OUT_OF_STOCK&#39;, &#39;DISCONTINUED&#39;)&lt;/div&gt;&lt;div&gt;&lt;br&gt;&lt;/div&gt;&lt;div&gt;&lt;div&gt;+ CreateAt: DATETIME&lt;/div&gt;&lt;div&gt;&lt;br&gt;&lt;/div&gt;&lt;div&gt;+ CreateBy: VARCHAR(255)&lt;/div&gt;&lt;div&gt;&lt;br&gt;&lt;/div&gt;&lt;div&gt;+ UpdateAt: DATETIME&lt;/div&gt;&lt;div&gt;&lt;br&gt;&lt;/div&gt;&lt;div&gt;+ UpdateBy: VARCHAR(255)&lt;/div&gt;&lt;/div&gt;" style="text;strokeColor=none;fillColor=none;align=left;verticalAlign=top;spacingLeft=4;spacingRight=4;overflow=hidden;rotatable=0;points=[[0,0.5],[1,0.5]];portConstraint=eastwest;whiteSpace=wrap;html=1;" parent="2UTO8eHYLIyQ8lcOq1nl-17" vertex="1">
          <mxGeometry y="104" width="220" height="236" as="geometry" />
        </mxCell>
        <mxCell id="2UTO8eHYLIyQ8lcOq1nl-21" value="TOPPINGS" style="swimlane;fontStyle=0;childLayout=stackLayout;horizontal=1;startSize=26;fillColor=none;horizontalStack=0;resizeParent=1;resizeParentMax=0;resizeLast=0;collapsible=1;marginBottom=0;whiteSpace=wrap;html=1;" parent="WIyWlLk6GJQsqaUBKTNV-1" vertex="1">
          <mxGeometry x="1300" y="-420" width="220" height="270" as="geometry" />
        </mxCell>
        <mxCell id="2UTO8eHYLIyQ8lcOq1nl-22" value="&lt;span style=&quot;color: rgb(255, 0, 0);&quot;&gt;+ Id: BIGINT&lt;/span&gt;" style="text;strokeColor=none;fillColor=none;align=left;verticalAlign=top;spacingLeft=4;spacingRight=4;overflow=hidden;rotatable=0;points=[[0,0.5],[1,0.5]];portConstraint=eastwest;whiteSpace=wrap;html=1;" parent="2UTO8eHYLIyQ8lcOq1nl-21" vertex="1">
          <mxGeometry y="26" width="220" height="26" as="geometry" />
        </mxCell>
        <mxCell id="2UTO8eHYLIyQ8lcOq1nl-23" value="+ Name: VARCHAR(255)" style="text;strokeColor=none;fillColor=none;align=left;verticalAlign=top;spacingLeft=4;spacingRight=4;overflow=hidden;rotatable=0;points=[[0,0.5],[1,0.5]];portConstraint=eastwest;whiteSpace=wrap;html=1;" parent="2UTO8eHYLIyQ8lcOq1nl-21" vertex="1">
          <mxGeometry y="52" width="220" height="26" as="geometry" />
        </mxCell>
        <mxCell id="2UTO8eHYLIyQ8lcOq1nl-24" value="+ Price: DECINAL&lt;div&gt;&lt;br&gt;&lt;/div&gt;&lt;div&gt;+ Status: ENUM(&#39;AVAILABLE&#39;, &#39;OUT_OF_STOCK&#39;)&lt;/div&gt;&lt;div&gt;&lt;br&gt;&lt;/div&gt;&lt;div&gt;&lt;div&gt;+ CreateAt: DATETIME&lt;/div&gt;&lt;div&gt;&lt;br&gt;&lt;/div&gt;&lt;div&gt;+ CreateBy: VARCHAR(255)&lt;/div&gt;&lt;div&gt;&lt;br&gt;&lt;/div&gt;&lt;div&gt;+ UpdateAt: DATETIME&lt;/div&gt;&lt;div&gt;&lt;br&gt;&lt;/div&gt;&lt;div&gt;+ UpdateBy: VARCHAR(255)&lt;/div&gt;&lt;/div&gt;" style="text;strokeColor=none;fillColor=none;align=left;verticalAlign=top;spacingLeft=4;spacingRight=4;overflow=hidden;rotatable=0;points=[[0,0.5],[1,0.5]];portConstraint=eastwest;whiteSpace=wrap;html=1;" parent="2UTO8eHYLIyQ8lcOq1nl-21" vertex="1">
          <mxGeometry y="78" width="220" height="192" as="geometry" />
        </mxCell>
        <mxCell id="2UTO8eHYLIyQ8lcOq1nl-25" value="ROLES" style="swimlane;fontStyle=0;childLayout=stackLayout;horizontal=1;startSize=26;fillColor=none;horizontalStack=0;resizeParent=1;resizeParentMax=0;resizeLast=0;collapsible=1;marginBottom=0;whiteSpace=wrap;html=1;" parent="WIyWlLk6GJQsqaUBKTNV-1" vertex="1">
          <mxGeometry x="480" y="-740" width="180" height="280" as="geometry" />
        </mxCell>
        <mxCell id="2UTO8eHYLIyQ8lcOq1nl-26" value="&lt;span style=&quot;color: rgb(255, 0, 0);&quot;&gt;+ Id: BIGINT&lt;/span&gt;" style="text;strokeColor=none;fillColor=none;align=left;verticalAlign=top;spacingLeft=4;spacingRight=4;overflow=hidden;rotatable=0;points=[[0,0.5],[1,0.5]];portConstraint=eastwest;whiteSpace=wrap;html=1;" parent="2UTO8eHYLIyQ8lcOq1nl-25" vertex="1">
          <mxGeometry y="26" width="180" height="26" as="geometry" />
        </mxCell>
        <mxCell id="2UTO8eHYLIyQ8lcOq1nl-27" value="+ Name: VARCHAR(255)" style="text;strokeColor=none;fillColor=none;align=left;verticalAlign=top;spacingLeft=4;spacingRight=4;overflow=hidden;rotatable=0;points=[[0,0.5],[1,0.5]];portConstraint=eastwest;whiteSpace=wrap;html=1;" parent="2UTO8eHYLIyQ8lcOq1nl-25" vertex="1">
          <mxGeometry y="52" width="180" height="26" as="geometry" />
        </mxCell>
        <mxCell id="2UTO8eHYLIyQ8lcOq1nl-28" value="+ Description: MEDIUMTEXT&lt;div&gt;&lt;br&gt;&lt;/div&gt;&lt;div&gt;+ Active: BOOLEAN&lt;/div&gt;&lt;div&gt;&lt;br&gt;&lt;/div&gt;&lt;div&gt;&lt;div&gt;+ CreateAt: DATETIME&lt;/div&gt;&lt;div&gt;&lt;br&gt;&lt;/div&gt;&lt;div&gt;+ CreateBy: VARCHAR(255)&lt;/div&gt;&lt;div&gt;&lt;br&gt;&lt;/div&gt;&lt;div&gt;+ UpdateAt: DATETIME&lt;/div&gt;&lt;div&gt;&lt;br&gt;&lt;/div&gt;&lt;div&gt;+ UpdateBy: VARCHAR(255)&lt;/div&gt;&lt;/div&gt;&lt;div&gt;&lt;br&gt;&lt;/div&gt;" style="text;strokeColor=none;fillColor=none;align=left;verticalAlign=top;spacingLeft=4;spacingRight=4;overflow=hidden;rotatable=0;points=[[0,0.5],[1,0.5]];portConstraint=eastwest;whiteSpace=wrap;html=1;" parent="2UTO8eHYLIyQ8lcOq1nl-25" vertex="1">
          <mxGeometry y="78" width="180" height="202" as="geometry" />
        </mxCell>
        <mxCell id="2UTO8eHYLIyQ8lcOq1nl-29" value="ORDERS" style="swimlane;fontStyle=0;childLayout=stackLayout;horizontal=1;startSize=26;fillColor=none;horizontalStack=0;resizeParent=1;resizeParentMax=0;resizeLast=0;collapsible=1;marginBottom=0;whiteSpace=wrap;html=1;" parent="WIyWlLk6GJQsqaUBKTNV-1" vertex="1">
          <mxGeometry x="445" y="-420" width="250" height="412" as="geometry" />
        </mxCell>
        <mxCell id="2UTO8eHYLIyQ8lcOq1nl-30" value="&lt;span style=&quot;color: rgb(255, 0, 0);&quot;&gt;+ Id: BIGINT&lt;/span&gt;" style="text;strokeColor=none;fillColor=none;align=left;verticalAlign=top;spacingLeft=4;spacingRight=4;overflow=hidden;rotatable=0;points=[[0,0.5],[1,0.5]];portConstraint=eastwest;whiteSpace=wrap;html=1;" parent="2UTO8eHYLIyQ8lcOq1nl-29" vertex="1">
          <mxGeometry y="26" width="250" height="26" as="geometry" />
        </mxCell>
        <mxCell id="2UTO8eHYLIyQ8lcOq1nl-31" value="&lt;font style=&quot;color: rgb(51, 153, 255);&quot;&gt;+ UserId: BIGINT&lt;/font&gt;&lt;div&gt;&lt;font style=&quot;color: rgb(51, 153, 255);&quot;&gt;&lt;br&gt;&lt;/font&gt;&lt;/div&gt;&lt;div&gt;&lt;br&gt;&lt;/div&gt;" style="text;strokeColor=none;fillColor=none;align=left;verticalAlign=top;spacingLeft=4;spacingRight=4;overflow=hidden;rotatable=0;points=[[0,0.5],[1,0.5]];portConstraint=eastwest;whiteSpace=wrap;html=1;" parent="2UTO8eHYLIyQ8lcOq1nl-29" vertex="1">
          <mxGeometry y="52" width="250" height="26" as="geometry" />
        </mxCell>
        <mxCell id="aSxI8BKwE8xpwClNQIL9-22" value="&lt;font style=&quot;color: rgb(51, 153, 255);&quot;&gt;+ CouponId: BIGINT&lt;/font&gt;" style="text;strokeColor=none;fillColor=none;align=left;verticalAlign=top;spacingLeft=4;spacingRight=4;overflow=hidden;rotatable=0;points=[[0,0.5],[1,0.5]];portConstraint=eastwest;whiteSpace=wrap;html=1;" parent="2UTO8eHYLIyQ8lcOq1nl-29" vertex="1">
          <mxGeometry y="78" width="250" height="26" as="geometry" />
        </mxCell>
        <mxCell id="PodPdc2mG8BV511WwIqK-0" value="&lt;font style=&quot;color: rgb(51, 153, 255);&quot;&gt;+ AddressUserId: BIGINT&lt;/font&gt;" style="text;strokeColor=none;fillColor=none;align=left;verticalAlign=top;spacingLeft=4;spacingRight=4;overflow=hidden;rotatable=0;points=[[0,0.5],[1,0.5]];portConstraint=eastwest;whiteSpace=wrap;html=1;" parent="2UTO8eHYLIyQ8lcOq1nl-29" vertex="1">
          <mxGeometry y="104" width="250" height="26" as="geometry" />
        </mxCell>
        <mxCell id="2UTO8eHYLIyQ8lcOq1nl-32" value="&lt;div&gt;+ Note: MEDIUMTEXT&lt;/div&gt;&lt;div&gt;&lt;br&gt;&lt;/div&gt;+ ToltalPrice: DECIMAL&lt;div&gt;&lt;br&gt;&lt;/div&gt;&lt;div&gt;+ FinalPrice: DECIMAL&lt;br&gt;&lt;div&gt;&lt;br&gt;&lt;/div&gt;&lt;div&gt;+ Status: ENUM (&#39;PENDING&#39;, &#39;SHIPPING&#39;, &#39;CANCELLED&#39;, &#39;COMPLETED&#39;)&lt;/div&gt;&lt;div&gt;&lt;br&gt;&lt;/div&gt;&lt;div&gt;&lt;div&gt;+ CreateAt: DATETIME&lt;/div&gt;&lt;div&gt;&lt;br&gt;&lt;/div&gt;&lt;div&gt;+ CreateBy: VARCHAR(255)&lt;/div&gt;&lt;div&gt;&lt;br&gt;&lt;/div&gt;&lt;div&gt;+ UpdateAt: DATETIME&lt;/div&gt;&lt;div&gt;&lt;br&gt;&lt;/div&gt;&lt;div&gt;+ UpdateBy: VARCHAR(255)&lt;/div&gt;&lt;/div&gt;&lt;/div&gt;" style="text;strokeColor=none;fillColor=none;align=left;verticalAlign=top;spacingLeft=4;spacingRight=4;overflow=hidden;rotatable=0;points=[[0,0.5],[1,0.5]];portConstraint=eastwest;whiteSpace=wrap;html=1;" parent="2UTO8eHYLIyQ8lcOq1nl-29" vertex="1">
          <mxGeometry y="130" width="250" height="282" as="geometry" />
        </mxCell>
        <mxCell id="2UTO8eHYLIyQ8lcOq1nl-33" value="CATEGORIES" style="swimlane;fontStyle=0;childLayout=stackLayout;horizontal=1;startSize=26;fillColor=none;horizontalStack=0;resizeParent=1;resizeParentMax=0;resizeLast=0;collapsible=1;marginBottom=0;whiteSpace=wrap;html=1;" parent="WIyWlLk6GJQsqaUBKTNV-1" vertex="1">
          <mxGeometry x="445" y="30" width="170" height="250" as="geometry" />
        </mxCell>
        <mxCell id="2UTO8eHYLIyQ8lcOq1nl-34" value="&lt;span style=&quot;color: rgb(255, 0, 0);&quot;&gt;+ Id: BIGINT&lt;/span&gt;" style="text;strokeColor=none;fillColor=none;align=left;verticalAlign=top;spacingLeft=4;spacingRight=4;overflow=hidden;rotatable=0;points=[[0,0.5],[1,0.5]];portConstraint=eastwest;whiteSpace=wrap;html=1;" parent="2UTO8eHYLIyQ8lcOq1nl-33" vertex="1">
          <mxGeometry y="26" width="170" height="26" as="geometry" />
        </mxCell>
        <mxCell id="2UTO8eHYLIyQ8lcOq1nl-35" value="+ Name: VARCHAR(255)" style="text;strokeColor=none;fillColor=none;align=left;verticalAlign=top;spacingLeft=4;spacingRight=4;overflow=hidden;rotatable=0;points=[[0,0.5],[1,0.5]];portConstraint=eastwest;whiteSpace=wrap;html=1;" parent="2UTO8eHYLIyQ8lcOq1nl-33" vertex="1">
          <mxGeometry y="52" width="170" height="26" as="geometry" />
        </mxCell>
        <mxCell id="2UTO8eHYLIyQ8lcOq1nl-36" value="+ IsActive: BOOLEAN&lt;div&gt;&lt;br&gt;&lt;/div&gt;&lt;div&gt;+ Description: MEDIUMTEXT&lt;/div&gt;&lt;div&gt;&lt;br&gt;&lt;/div&gt;&lt;div&gt;&lt;div&gt;+ CreateAt: DATETIME&lt;/div&gt;&lt;div&gt;&lt;br&gt;&lt;/div&gt;&lt;div&gt;+ CreateBy: VARCHAR(255)&lt;/div&gt;&lt;div&gt;&lt;br&gt;&lt;/div&gt;&lt;div&gt;+ UpdateAt: DATETIME&lt;/div&gt;&lt;div&gt;&lt;br&gt;&lt;/div&gt;&lt;div&gt;+ UpdateBy: VARCHAR(255)&lt;/div&gt;&lt;/div&gt;&lt;div&gt;&lt;br&gt;&lt;/div&gt;&lt;div&gt;&lt;br&gt;&lt;/div&gt;" style="text;strokeColor=none;fillColor=none;align=left;verticalAlign=top;spacingLeft=4;spacingRight=4;overflow=hidden;rotatable=0;points=[[0,0.5],[1,0.5]];portConstraint=eastwest;whiteSpace=wrap;html=1;" parent="2UTO8eHYLIyQ8lcOq1nl-33" vertex="1">
          <mxGeometry y="78" width="170" height="172" as="geometry" />
        </mxCell>
        <mxCell id="2UTO8eHYLIyQ8lcOq1nl-37" value="COUPONS" style="swimlane;fontStyle=0;childLayout=stackLayout;horizontal=1;startSize=26;fillColor=none;horizontalStack=0;resizeParent=1;resizeParentMax=0;resizeLast=0;collapsible=1;marginBottom=0;whiteSpace=wrap;html=1;" parent="WIyWlLk6GJQsqaUBKTNV-1" vertex="1">
          <mxGeometry x="90" y="-320" width="230" height="500" as="geometry" />
        </mxCell>
        <mxCell id="2UTO8eHYLIyQ8lcOq1nl-38" value="&lt;span style=&quot;color: rgb(255, 0, 0);&quot;&gt;+ Id: BIGINT&lt;/span&gt;" style="text;strokeColor=none;fillColor=none;align=left;verticalAlign=top;spacingLeft=4;spacingRight=4;overflow=hidden;rotatable=0;points=[[0,0.5],[1,0.5]];portConstraint=eastwest;whiteSpace=wrap;html=1;" parent="2UTO8eHYLIyQ8lcOq1nl-37" vertex="1">
          <mxGeometry y="26" width="230" height="26" as="geometry" />
        </mxCell>
        <mxCell id="2UTO8eHYLIyQ8lcOq1nl-39" value="+ Code: VARCHAR(255)" style="text;strokeColor=none;fillColor=none;align=left;verticalAlign=top;spacingLeft=4;spacingRight=4;overflow=hidden;rotatable=0;points=[[0,0.5],[1,0.5]];portConstraint=eastwest;whiteSpace=wrap;html=1;" parent="2UTO8eHYLIyQ8lcOq1nl-37" vertex="1">
          <mxGeometry y="52" width="230" height="26" as="geometry" />
        </mxCell>
        <mxCell id="2UTO8eHYLIyQ8lcOq1nl-40" value="+ Description: MEDIUMTEXT&lt;div&gt;&lt;br&gt;&lt;/div&gt;&lt;div&gt;+ Image: VARCHAR(255)&lt;/div&gt;&lt;div&gt;&lt;br&gt;&lt;/div&gt;&lt;div&gt;+ DiscountType:&amp;nbsp;ENUM(&#39;PERCENT&#39;, &#39;AMOUNT&#39;)&lt;/div&gt;&lt;div&gt;&lt;br&gt;&lt;/div&gt;&lt;div&gt;+ DiscountValue:&amp;nbsp;DECIMAL(10, 2)&lt;/div&gt;&lt;div&gt;&lt;br&gt;&lt;/div&gt;&lt;div&gt;+ MaxDiscount:&amp;nbsp;&lt;span style=&quot;background-color: transparent; color: light-dark(rgb(0, 0, 0), rgb(255, 255, 255));&quot;&gt;DECIMAL(10, 2)&lt;/span&gt;&lt;/div&gt;&lt;div&gt;&lt;br&gt;&lt;/div&gt;&lt;div&gt;+ MinOrderVlaue:&amp;nbsp;&lt;span style=&quot;background-color: transparent; color: light-dark(rgb(0, 0, 0), rgb(255, 255, 255));&quot;&gt;DECIMAL(10, 2)&lt;/span&gt;&lt;/div&gt;&lt;div&gt;&lt;span style=&quot;background-color: transparent; color: light-dark(rgb(0, 0, 0), rgb(255, 255, 255));&quot;&gt;&lt;br&gt;&lt;/span&gt;&lt;/div&gt;&lt;div&gt;&lt;span style=&quot;background-color: transparent; color: light-dark(rgb(0, 0, 0), rgb(255, 255, 255));&quot;&gt;+ Quantity: INT&lt;/span&gt;&lt;/div&gt;&lt;div&gt;&lt;span style=&quot;background-color: transparent; color: light-dark(rgb(0, 0, 0), rgb(255, 255, 255));&quot;&gt;&lt;br&gt;&lt;/span&gt;&lt;/div&gt;&lt;div&gt;&lt;span style=&quot;background-color: transparent; color: light-dark(rgb(0, 0, 0), rgb(255, 255, 255));&quot;&gt;+ StartDate: DATETIME&lt;/span&gt;&lt;/div&gt;&lt;div&gt;&lt;span style=&quot;background-color: transparent; color: light-dark(rgb(0, 0, 0), rgb(255, 255, 255));&quot;&gt;&lt;br&gt;&lt;/span&gt;&lt;/div&gt;&lt;div&gt;&lt;span style=&quot;background-color: transparent; color: light-dark(rgb(0, 0, 0), rgb(255, 255, 255));&quot;&gt;+ EndDate: DATETIME&lt;/span&gt;&lt;/div&gt;&lt;div&gt;&lt;span style=&quot;background-color: transparent; color: light-dark(rgb(0, 0, 0), rgb(255, 255, 255));&quot;&gt;&lt;br&gt;&lt;/span&gt;&lt;/div&gt;&lt;div&gt;&lt;span style=&quot;background-color: transparent; color: light-dark(rgb(0, 0, 0), rgb(255, 255, 255));&quot;&gt;+ IsActive: BOOLEAN&lt;/span&gt;&lt;/div&gt;&lt;div&gt;&lt;span style=&quot;background-color: transparent; color: light-dark(rgb(0, 0, 0), rgb(255, 255, 255));&quot;&gt;&lt;br&gt;&lt;/span&gt;&lt;/div&gt;&lt;div&gt;&lt;div&gt;+ CreateAt: DATETIME&lt;/div&gt;&lt;div&gt;&lt;br&gt;&lt;/div&gt;&lt;div&gt;+ CreateBy: VARCHAR(255)&lt;/div&gt;&lt;div&gt;&lt;br&gt;&lt;/div&gt;&lt;div&gt;+ UpdateAt: DATETIME&lt;/div&gt;&lt;div&gt;&lt;br&gt;&lt;/div&gt;&lt;div&gt;+ UpdateBy: VARCHAR(255&lt;/div&gt;&lt;/div&gt;&lt;div&gt;&lt;span style=&quot;background-color: transparent; color: light-dark(rgb(0, 0, 0), rgb(255, 255, 255));&quot;&gt;&lt;br&gt;&lt;/span&gt;&lt;/div&gt;&lt;div&gt;&lt;span style=&quot;background-color: transparent; color: light-dark(rgb(0, 0, 0), rgb(255, 255, 255));&quot;&gt;&lt;br&gt;&lt;/span&gt;&lt;/div&gt;" style="text;strokeColor=none;fillColor=none;align=left;verticalAlign=top;spacingLeft=4;spacingRight=4;overflow=hidden;rotatable=0;points=[[0,0.5],[1,0.5]];portConstraint=eastwest;whiteSpace=wrap;html=1;" parent="2UTO8eHYLIyQ8lcOq1nl-37" vertex="1">
          <mxGeometry y="78" width="230" height="422" as="geometry" />
        </mxCell>
        <mxCell id="2UTO8eHYLIyQ8lcOq1nl-41" value="ORDER_DETAIL" style="swimlane;fontStyle=0;childLayout=stackLayout;horizontal=1;startSize=26;fillColor=none;horizontalStack=0;resizeParent=1;resizeParentMax=0;resizeLast=0;collapsible=1;marginBottom=0;whiteSpace=wrap;html=1;" parent="WIyWlLk6GJQsqaUBKTNV-1" vertex="1">
          <mxGeometry x="800" y="-420" width="170" height="304" as="geometry" />
        </mxCell>
        <mxCell id="2UTO8eHYLIyQ8lcOq1nl-42" value="&lt;span style=&quot;color: rgb(255, 0, 0);&quot;&gt;+ Id: BIGINT&lt;/span&gt;" style="text;strokeColor=none;fillColor=none;align=left;verticalAlign=top;spacingLeft=4;spacingRight=4;overflow=hidden;rotatable=0;points=[[0,0.5],[1,0.5]];portConstraint=eastwest;whiteSpace=wrap;html=1;" parent="2UTO8eHYLIyQ8lcOq1nl-41" vertex="1">
          <mxGeometry y="26" width="170" height="26" as="geometry" />
        </mxCell>
        <mxCell id="2UTO8eHYLIyQ8lcOq1nl-43" value="&lt;font style=&quot;color: rgb(51, 153, 255);&quot;&gt;+ OrderId: BIGINT&lt;/font&gt;" style="text;strokeColor=none;fillColor=none;align=left;verticalAlign=top;spacingLeft=4;spacingRight=4;overflow=hidden;rotatable=0;points=[[0,0.5],[1,0.5]];portConstraint=eastwest;whiteSpace=wrap;html=1;" parent="2UTO8eHYLIyQ8lcOq1nl-41" vertex="1">
          <mxGeometry y="52" width="170" height="26" as="geometry" />
        </mxCell>
        <mxCell id="aSxI8BKwE8xpwClNQIL9-17" value="&lt;font style=&quot;color: rgb(51, 153, 255);&quot;&gt;+ ProductSizeId: BIGINT&lt;/font&gt;" style="text;strokeColor=none;fillColor=none;align=left;verticalAlign=top;spacingLeft=4;spacingRight=4;overflow=hidden;rotatable=0;points=[[0,0.5],[1,0.5]];portConstraint=eastwest;whiteSpace=wrap;html=1;" parent="2UTO8eHYLIyQ8lcOq1nl-41" vertex="1">
          <mxGeometry y="78" width="170" height="26" as="geometry" />
        </mxCell>
        <mxCell id="2UTO8eHYLIyQ8lcOq1nl-44" value="&lt;div&gt;&lt;span style=&quot;background-color: transparent; color: light-dark(rgb(0, 0, 0), rgb(255, 255, 255));&quot;&gt;+ Quantity: INT&lt;/span&gt;&lt;/div&gt;&lt;div&gt;&lt;br&gt;&lt;/div&gt;&lt;div&gt;+ Price: DECIMAL&lt;/div&gt;&lt;div&gt;&lt;br&gt;&lt;/div&gt;&lt;div&gt;&lt;div&gt;+ CreateAt: DATETIME&lt;/div&gt;&lt;div&gt;&lt;br&gt;&lt;/div&gt;&lt;div&gt;+ CreateBy: VARCHAR(255)&lt;/div&gt;&lt;div&gt;&lt;br&gt;&lt;/div&gt;&lt;div&gt;+ UpdateAt: DATETIME&lt;/div&gt;&lt;div&gt;&lt;br&gt;&lt;/div&gt;&lt;div&gt;+ UpdateBy: VARCHAR(255)&lt;/div&gt;&lt;/div&gt;" style="text;strokeColor=none;fillColor=none;align=left;verticalAlign=top;spacingLeft=4;spacingRight=4;overflow=hidden;rotatable=0;points=[[0,0.5],[1,0.5]];portConstraint=eastwest;whiteSpace=wrap;html=1;" parent="2UTO8eHYLIyQ8lcOq1nl-41" vertex="1">
          <mxGeometry y="104" width="170" height="200" as="geometry" />
        </mxCell>
        <mxCell id="2UTO8eHYLIyQ8lcOq1nl-45" value="ORDER_DETAIL_TOPPING" style="swimlane;fontStyle=0;childLayout=stackLayout;horizontal=1;startSize=26;fillColor=none;horizontalStack=0;resizeParent=1;resizeParentMax=0;resizeLast=0;collapsible=1;marginBottom=0;whiteSpace=wrap;html=1;" parent="WIyWlLk6GJQsqaUBKTNV-1" vertex="1">
          <mxGeometry x="1030" y="-400" width="180" height="104" as="geometry" />
        </mxCell>
        <mxCell id="2UTO8eHYLIyQ8lcOq1nl-46" value="&lt;span style=&quot;color: rgb(255, 0, 0);&quot;&gt;+ Id: BIGINT&lt;/span&gt;" style="text;strokeColor=none;fillColor=none;align=left;verticalAlign=top;spacingLeft=4;spacingRight=4;overflow=hidden;rotatable=0;points=[[0,0.5],[1,0.5]];portConstraint=eastwest;whiteSpace=wrap;html=1;" parent="2UTO8eHYLIyQ8lcOq1nl-45" vertex="1">
          <mxGeometry y="26" width="180" height="26" as="geometry" />
        </mxCell>
        <mxCell id="2UTO8eHYLIyQ8lcOq1nl-47" value="&lt;font style=&quot;color: rgb(51, 153, 255);&quot;&gt;+ OrderDetailId: BIGINT&lt;/font&gt;" style="text;strokeColor=none;fillColor=none;align=left;verticalAlign=top;spacingLeft=4;spacingRight=4;overflow=hidden;rotatable=0;points=[[0,0.5],[1,0.5]];portConstraint=eastwest;whiteSpace=wrap;html=1;" parent="2UTO8eHYLIyQ8lcOq1nl-45" vertex="1">
          <mxGeometry y="52" width="180" height="26" as="geometry" />
        </mxCell>
        <mxCell id="2UTO8eHYLIyQ8lcOq1nl-48" value="&lt;font style=&quot;color: rgb(51, 153, 255);&quot;&gt;+ ToppingId: BIGINT&lt;/font&gt;" style="text;strokeColor=none;fillColor=none;align=left;verticalAlign=top;spacingLeft=4;spacingRight=4;overflow=hidden;rotatable=0;points=[[0,0.5],[1,0.5]];portConstraint=eastwest;whiteSpace=wrap;html=1;" parent="2UTO8eHYLIyQ8lcOq1nl-45" vertex="1">
          <mxGeometry y="78" width="180" height="26" as="geometry" />
        </mxCell>
        <mxCell id="2UTO8eHYLIyQ8lcOq1nl-49" value="ADDRESSES" style="swimlane;fontStyle=0;childLayout=stackLayout;horizontal=1;startSize=26;fillColor=none;horizontalStack=0;resizeParent=1;resizeParentMax=0;resizeLast=0;collapsible=1;marginBottom=0;whiteSpace=wrap;html=1;" parent="WIyWlLk6GJQsqaUBKTNV-1" vertex="1">
          <mxGeometry x="790" y="-1110" width="180" height="280" as="geometry" />
        </mxCell>
        <mxCell id="2UTO8eHYLIyQ8lcOq1nl-50" value="&lt;span style=&quot;color: rgb(255, 0, 0);&quot;&gt;+ Id: BIGINT&lt;/span&gt;" style="text;strokeColor=none;fillColor=none;align=left;verticalAlign=top;spacingLeft=4;spacingRight=4;overflow=hidden;rotatable=0;points=[[0,0.5],[1,0.5]];portConstraint=eastwest;whiteSpace=wrap;html=1;" parent="2UTO8eHYLIyQ8lcOq1nl-49" vertex="1">
          <mxGeometry y="26" width="180" height="26" as="geometry" />
        </mxCell>
        <mxCell id="2UTO8eHYLIyQ8lcOq1nl-51" value="+ AddressLine:VARCHAR(255)" style="text;strokeColor=none;fillColor=none;align=left;verticalAlign=top;spacingLeft=4;spacingRight=4;overflow=hidden;rotatable=0;points=[[0,0.5],[1,0.5]];portConstraint=eastwest;whiteSpace=wrap;html=1;" parent="2UTO8eHYLIyQ8lcOq1nl-49" vertex="1">
          <mxGeometry y="52" width="180" height="28" as="geometry" />
        </mxCell>
        <mxCell id="2UTO8eHYLIyQ8lcOq1nl-52" value="+ Ward: VARCHAR(255)&lt;div&gt;&lt;br&gt;&lt;/div&gt;&lt;div&gt;+ District: VARHCAR(255)&lt;/div&gt;&lt;div&gt;&lt;br&gt;&lt;/div&gt;&lt;div&gt;+ Province: VARCHAR(255)&lt;/div&gt;&lt;div&gt;&lt;br&gt;&lt;/div&gt;&lt;div&gt;&amp;nbsp;&lt;span style=&quot;background-color: transparent; color: light-dark(rgb(0, 0, 0), rgb(255, 255, 255));&quot;&gt;+ CreateAt: DATETIME&lt;/span&gt;&lt;/div&gt;&lt;div&gt;&lt;br&gt;&lt;/div&gt;&lt;div&gt;+ CreateBy: VARCHAR(255)&lt;/div&gt;&lt;div&gt;&lt;br&gt;&lt;/div&gt;&lt;div&gt;+ UpdateAt: DATETIME&lt;/div&gt;&lt;div&gt;&lt;br&gt;&lt;/div&gt;&lt;div&gt;+ UpdateBy: VARCHAR(255)&lt;/div&gt;" style="text;strokeColor=none;fillColor=none;align=left;verticalAlign=top;spacingLeft=4;spacingRight=4;overflow=hidden;rotatable=0;points=[[0,0.5],[1,0.5]];portConstraint=eastwest;whiteSpace=wrap;html=1;" parent="2UTO8eHYLIyQ8lcOq1nl-49" vertex="1">
          <mxGeometry y="80" width="180" height="200" as="geometry" />
        </mxCell>
        <mxCell id="aSxI8BKwE8xpwClNQIL9-0" value="USER_ADDRESS" style="swimlane;fontStyle=0;childLayout=stackLayout;horizontal=1;startSize=26;fillColor=none;horizontalStack=0;resizeParent=1;resizeParentMax=0;resizeLast=0;collapsible=1;marginBottom=0;whiteSpace=wrap;html=1;" parent="WIyWlLk6GJQsqaUBKTNV-1" vertex="1">
          <mxGeometry x="480" y="-1110" width="210" height="306" as="geometry" />
        </mxCell>
        <mxCell id="aSxI8BKwE8xpwClNQIL9-1" value="&lt;span style=&quot;color: rgb(255, 0, 0);&quot;&gt;+ Id: BIGINT&lt;/span&gt;" style="text;strokeColor=none;fillColor=none;align=left;verticalAlign=top;spacingLeft=4;spacingRight=4;overflow=hidden;rotatable=0;points=[[0,0.5],[1,0.5]];portConstraint=eastwest;whiteSpace=wrap;html=1;" parent="aSxI8BKwE8xpwClNQIL9-0" vertex="1">
          <mxGeometry y="26" width="210" height="26" as="geometry" />
        </mxCell>
        <mxCell id="aSxI8BKwE8xpwClNQIL9-2" value="&lt;font style=&quot;color: rgb(51, 153, 255);&quot;&gt;+ UserId: BIGINT&lt;/font&gt;&lt;div&gt;&lt;font style=&quot;color: rgb(51, 153, 255);&quot;&gt;&lt;br&gt;&lt;/font&gt;&lt;/div&gt;&lt;div&gt;&lt;font style=&quot;color: rgb(51, 153, 255);&quot;&gt;+ AddressId: BIGINT&lt;/font&gt;&lt;/div&gt;" style="text;strokeColor=none;fillColor=none;align=left;verticalAlign=top;spacingLeft=4;spacingRight=4;overflow=hidden;rotatable=0;points=[[0,0.5],[1,0.5]];portConstraint=eastwest;whiteSpace=wrap;html=1;" parent="aSxI8BKwE8xpwClNQIL9-0" vertex="1">
          <mxGeometry y="52" width="210" height="28" as="geometry" />
        </mxCell>
        <mxCell id="aSxI8BKwE8xpwClNQIL9-13" value="&lt;span style=&quot;color: rgb(51, 153, 255); text-wrap-mode: nowrap;&quot;&gt;&amp;nbsp;+ AddressId: BIGINT&lt;/span&gt;" style="text;strokeColor=none;fillColor=none;align=left;verticalAlign=top;spacingLeft=4;spacingRight=4;overflow=hidden;rotatable=0;points=[[0,0.5],[1,0.5]];portConstraint=eastwest;whiteSpace=wrap;html=1;" parent="aSxI8BKwE8xpwClNQIL9-0" vertex="1">
          <mxGeometry y="80" width="210" height="26" as="geometry" />
        </mxCell>
        <mxCell id="aSxI8BKwE8xpwClNQIL9-3" value="+ ReceiverName: VARCHAR(255)&lt;div&gt;&lt;br&gt;&lt;/div&gt;&lt;div&gt;+ ReceiverPhone: BIGINT&lt;/div&gt;&lt;div&gt;&lt;br&gt;&lt;/div&gt;&lt;div&gt;+ Description: MEDIUMTEXT&lt;/div&gt;&lt;div&gt;&lt;br&gt;&lt;/div&gt;&lt;div&gt;+ IsDefault: BOOLEAN&lt;/div&gt;" style="text;strokeColor=none;fillColor=none;align=left;verticalAlign=top;spacingLeft=4;spacingRight=4;overflow=hidden;rotatable=0;points=[[0,0.5],[1,0.5]];portConstraint=eastwest;whiteSpace=wrap;html=1;" parent="aSxI8BKwE8xpwClNQIL9-0" vertex="1">
          <mxGeometry y="106" width="210" height="200" as="geometry" />
        </mxCell>
        <mxCell id="aSxI8BKwE8xpwClNQIL9-4" value="PERMISSIONS" style="swimlane;fontStyle=0;childLayout=stackLayout;horizontal=1;startSize=26;fillColor=none;horizontalStack=0;resizeParent=1;resizeParentMax=0;resizeLast=0;collapsible=1;marginBottom=0;whiteSpace=wrap;html=1;" parent="WIyWlLk6GJQsqaUBKTNV-1" vertex="1">
          <mxGeometry x="1050" y="-740" width="180" height="280" as="geometry" />
        </mxCell>
        <mxCell id="aSxI8BKwE8xpwClNQIL9-5" value="&lt;span style=&quot;color: rgb(255, 0, 0);&quot;&gt;+ Id: BIGINT&lt;/span&gt;" style="text;strokeColor=none;fillColor=none;align=left;verticalAlign=top;spacingLeft=4;spacingRight=4;overflow=hidden;rotatable=0;points=[[0,0.5],[1,0.5]];portConstraint=eastwest;whiteSpace=wrap;html=1;" parent="aSxI8BKwE8xpwClNQIL9-4" vertex="1">
          <mxGeometry y="26" width="180" height="26" as="geometry" />
        </mxCell>
        <mxCell id="aSxI8BKwE8xpwClNQIL9-6" value="+ Name: VARCHAR(255)" style="text;strokeColor=none;fillColor=none;align=left;verticalAlign=top;spacingLeft=4;spacingRight=4;overflow=hidden;rotatable=0;points=[[0,0.5],[1,0.5]];portConstraint=eastwest;whiteSpace=wrap;html=1;" parent="aSxI8BKwE8xpwClNQIL9-4" vertex="1">
          <mxGeometry y="52" width="180" height="26" as="geometry" />
        </mxCell>
        <mxCell id="aSxI8BKwE8xpwClNQIL9-7" value="&lt;div&gt;+ ApiPath: VARCHAR(255)&lt;/div&gt;&lt;div&gt;&lt;br&gt;&lt;/div&gt;&lt;div&gt;+ Method: VARCHAR(255)&lt;/div&gt;&lt;div&gt;&lt;br&gt;&lt;/div&gt;&lt;div&gt;+ Module: VARCHAR(255)&lt;/div&gt;&lt;div&gt;&lt;br&gt;&lt;/div&gt;&lt;div&gt;&lt;div&gt;+ CreateAt: DATETIME&lt;/div&gt;&lt;div&gt;&lt;br&gt;&lt;/div&gt;&lt;div&gt;+ CreateBy: VARCHAR(255)&lt;/div&gt;&lt;div&gt;&lt;br&gt;&lt;/div&gt;&lt;div&gt;+ UpdateAt: DATETIME&lt;/div&gt;&lt;div&gt;&lt;br&gt;&lt;/div&gt;&lt;div&gt;+ UpdateBy: VARCHAR(255)&lt;/div&gt;&lt;/div&gt;&lt;div&gt;&lt;br&gt;&lt;/div&gt;" style="text;strokeColor=none;fillColor=none;align=left;verticalAlign=top;spacingLeft=4;spacingRight=4;overflow=hidden;rotatable=0;points=[[0,0.5],[1,0.5]];portConstraint=eastwest;whiteSpace=wrap;html=1;" parent="aSxI8BKwE8xpwClNQIL9-4" vertex="1">
          <mxGeometry y="78" width="180" height="202" as="geometry" />
        </mxCell>
        <mxCell id="aSxI8BKwE8xpwClNQIL9-9" style="edgeStyle=orthogonalEdgeStyle;rounded=0;orthogonalLoop=1;jettySize=auto;html=1;exitX=0;exitY=0.5;exitDx=0;exitDy=0;entryX=0;entryY=0.5;entryDx=0;entryDy=0;" parent="WIyWlLk6GJQsqaUBKTNV-1" source="2UTO8eHYLIyQ8lcOq1nl-3" target="2UTO8eHYLIyQ8lcOq1nl-26" edge="1">
          <mxGeometry relative="1" as="geometry" />
        </mxCell>
        <mxCell id="aSxI8BKwE8xpwClNQIL9-11" style="edgeStyle=orthogonalEdgeStyle;rounded=0;orthogonalLoop=1;jettySize=auto;html=1;exitX=0;exitY=0.5;exitDx=0;exitDy=0;entryX=0;entryY=0.5;entryDx=0;entryDy=0;" parent="WIyWlLk6GJQsqaUBKTNV-1" source="aSxI8BKwE8xpwClNQIL9-2" target="2UTO8eHYLIyQ8lcOq1nl-1" edge="1">
          <mxGeometry relative="1" as="geometry">
            <Array as="points">
              <mxPoint x="410" y="-1044" />
              <mxPoint x="410" y="-1150" />
              <mxPoint x="70" y="-1150" />
              <mxPoint x="70" y="-1057" />
            </Array>
          </mxGeometry>
        </mxCell>
        <mxCell id="aSxI8BKwE8xpwClNQIL9-14" style="edgeStyle=orthogonalEdgeStyle;rounded=0;orthogonalLoop=1;jettySize=auto;html=1;exitX=0;exitY=0.5;exitDx=0;exitDy=0;entryX=0;entryY=0.5;entryDx=0;entryDy=0;" parent="WIyWlLk6GJQsqaUBKTNV-1" source="aSxI8BKwE8xpwClNQIL9-13" target="2UTO8eHYLIyQ8lcOq1nl-50" edge="1">
          <mxGeometry relative="1" as="geometry">
            <Array as="points">
              <mxPoint x="460" y="-1017" />
              <mxPoint x="460" y="-780" />
              <mxPoint x="730" y="-780" />
              <mxPoint x="730" y="-1071" />
            </Array>
          </mxGeometry>
        </mxCell>
        <mxCell id="aSxI8BKwE8xpwClNQIL9-16" style="edgeStyle=orthogonalEdgeStyle;rounded=0;orthogonalLoop=1;jettySize=auto;html=1;exitX=0;exitY=0.5;exitDx=0;exitDy=0;" parent="WIyWlLk6GJQsqaUBKTNV-1" source="2UTO8eHYLIyQ8lcOq1nl-31" edge="1">
          <mxGeometry relative="1" as="geometry">
            <mxPoint x="90" y="-1069" as="targetPoint" />
            <Array as="points">
              <mxPoint x="20" y="-355" />
              <mxPoint x="20" y="-1069" />
            </Array>
          </mxGeometry>
        </mxCell>
        <mxCell id="aSxI8BKwE8xpwClNQIL9-19" style="edgeStyle=orthogonalEdgeStyle;rounded=0;orthogonalLoop=1;jettySize=auto;html=1;exitX=0;exitY=0.5;exitDx=0;exitDy=0;entryX=0;entryY=0.5;entryDx=0;entryDy=0;" parent="WIyWlLk6GJQsqaUBKTNV-1" source="2UTO8eHYLIyQ8lcOq1nl-43" target="2UTO8eHYLIyQ8lcOq1nl-30" edge="1">
          <mxGeometry relative="1" as="geometry">
            <Array as="points">
              <mxPoint x="748" y="-355" />
              <mxPoint x="748" y="-10" />
              <mxPoint x="425" y="-10" />
              <mxPoint x="425" y="-381" />
            </Array>
          </mxGeometry>
        </mxCell>
        <mxCell id="aSxI8BKwE8xpwClNQIL9-24" style="edgeStyle=orthogonalEdgeStyle;rounded=0;orthogonalLoop=1;jettySize=auto;html=1;exitX=0;exitY=0.5;exitDx=0;exitDy=0;entryX=0;entryY=0.5;entryDx=0;entryDy=0;" parent="WIyWlLk6GJQsqaUBKTNV-1" source="aSxI8BKwE8xpwClNQIL9-22" target="2UTO8eHYLIyQ8lcOq1nl-38" edge="1">
          <mxGeometry relative="1" as="geometry" />
        </mxCell>
        <mxCell id="aSxI8BKwE8xpwClNQIL9-26" style="edgeStyle=orthogonalEdgeStyle;rounded=0;orthogonalLoop=1;jettySize=auto;html=1;exitX=0;exitY=0.5;exitDx=0;exitDy=0;entryX=0;entryY=0.5;entryDx=0;entryDy=0;" parent="WIyWlLk6GJQsqaUBKTNV-1" source="2UTO8eHYLIyQ8lcOq1nl-19" target="2UTO8eHYLIyQ8lcOq1nl-5" edge="1">
          <mxGeometry relative="1" as="geometry">
            <Array as="points">
              <mxPoint x="1270" y="65" />
              <mxPoint x="1270" y="5" />
              <mxPoint x="1018" y="5" />
              <mxPoint x="1018" y="-60" />
              <mxPoint x="770" y="-60" />
              <mxPoint x="770" y="20" />
              <mxPoint x="795" y="20" />
            </Array>
          </mxGeometry>
        </mxCell>
        <mxCell id="aSxI8BKwE8xpwClNQIL9-27" style="edgeStyle=orthogonalEdgeStyle;rounded=0;orthogonalLoop=1;jettySize=auto;html=1;exitX=0;exitY=0.5;exitDx=0;exitDy=0;entryX=1;entryY=0.5;entryDx=0;entryDy=0;" parent="WIyWlLk6GJQsqaUBKTNV-1" source="aSxI8BKwE8xpwClNQIL9-25" target="2UTO8eHYLIyQ8lcOq1nl-9" edge="1">
          <mxGeometry relative="1" as="geometry">
            <Array as="points">
              <mxPoint x="1330" y="150" />
              <mxPoint x="1260" y="150" />
              <mxPoint x="1260" y="75" />
            </Array>
          </mxGeometry>
        </mxCell>
        <mxCell id="aSxI8BKwE8xpwClNQIL9-28" style="edgeStyle=orthogonalEdgeStyle;rounded=0;orthogonalLoop=1;jettySize=auto;html=1;exitX=0;exitY=0.5;exitDx=0;exitDy=0;entryX=1;entryY=0.5;entryDx=0;entryDy=0;" parent="WIyWlLk6GJQsqaUBKTNV-1" source="2UTO8eHYLIyQ8lcOq1nl-47" target="2UTO8eHYLIyQ8lcOq1nl-42" edge="1">
          <mxGeometry relative="1" as="geometry">
            <Array as="points">
              <mxPoint x="1030" y="-330" />
              <mxPoint x="990" y="-330" />
              <mxPoint x="990" y="-381" />
            </Array>
          </mxGeometry>
        </mxCell>
        <mxCell id="aSxI8BKwE8xpwClNQIL9-31" style="edgeStyle=orthogonalEdgeStyle;rounded=0;orthogonalLoop=1;jettySize=auto;html=1;exitX=0;exitY=0.5;exitDx=0;exitDy=0;entryX=0;entryY=0.5;entryDx=0;entryDy=0;" parent="WIyWlLk6GJQsqaUBKTNV-1" source="aSxI8BKwE8xpwClNQIL9-30" target="2UTO8eHYLIyQ8lcOq1nl-34" edge="1">
          <mxGeometry relative="1" as="geometry">
            <Array as="points">
              <mxPoint x="705" y="61" />
              <mxPoint x="705" y="10" />
              <mxPoint x="425" y="10" />
              <mxPoint x="425" y="69" />
            </Array>
          </mxGeometry>
        </mxCell>
        <mxCell id="kuucGT2VcDPwkF9G9a3E-0" style="edgeStyle=orthogonalEdgeStyle;rounded=0;orthogonalLoop=1;jettySize=auto;html=1;exitX=0;exitY=0.5;exitDx=0;exitDy=0;entryX=0;entryY=0.5;entryDx=0;entryDy=0;" parent="WIyWlLk6GJQsqaUBKTNV-1" source="2UTO8eHYLIyQ8lcOq1nl-48" target="2UTO8eHYLIyQ8lcOq1nl-22" edge="1">
          <mxGeometry relative="1" as="geometry">
            <Array as="points">
              <mxPoint x="1010" y="-309" />
              <mxPoint x="1010" y="-260" />
              <mxPoint x="1260" y="-260" />
              <mxPoint x="1260" y="-381" />
            </Array>
          </mxGeometry>
        </mxCell>
        <mxCell id="kuucGT2VcDPwkF9G9a3E-1" value="ROLE_PERMISSION" style="swimlane;fontStyle=0;childLayout=stackLayout;horizontal=1;startSize=26;fillColor=none;horizontalStack=0;resizeParent=1;resizeParentMax=0;resizeLast=0;collapsible=1;marginBottom=0;whiteSpace=wrap;html=1;" parent="WIyWlLk6GJQsqaUBKTNV-1" vertex="1">
          <mxGeometry x="795" y="-740" width="140" height="104" as="geometry" />
        </mxCell>
        <mxCell id="kuucGT2VcDPwkF9G9a3E-2" value="&lt;font style=&quot;color: rgb(255, 0, 0);&quot;&gt;+ Id: BIGINT&lt;/font&gt;" style="text;strokeColor=none;fillColor=none;align=left;verticalAlign=top;spacingLeft=4;spacingRight=4;overflow=hidden;rotatable=0;points=[[0,0.5],[1,0.5]];portConstraint=eastwest;whiteSpace=wrap;html=1;" parent="kuucGT2VcDPwkF9G9a3E-1" vertex="1">
          <mxGeometry y="26" width="140" height="26" as="geometry" />
        </mxCell>
        <mxCell id="kuucGT2VcDPwkF9G9a3E-3" value="&lt;font style=&quot;color: rgb(51, 153, 255);&quot;&gt;+ RoleId: BIGINT&lt;/font&gt;" style="text;strokeColor=none;fillColor=none;align=left;verticalAlign=top;spacingLeft=4;spacingRight=4;overflow=hidden;rotatable=0;points=[[0,0.5],[1,0.5]];portConstraint=eastwest;whiteSpace=wrap;html=1;" parent="kuucGT2VcDPwkF9G9a3E-1" vertex="1">
          <mxGeometry y="52" width="140" height="26" as="geometry" />
        </mxCell>
        <mxCell id="kuucGT2VcDPwkF9G9a3E-4" value="&lt;font style=&quot;color: rgb(51, 153, 255);&quot;&gt;+ ProductId: BIGINT&lt;/font&gt;" style="text;strokeColor=none;fillColor=none;align=left;verticalAlign=top;spacingLeft=4;spacingRight=4;overflow=hidden;rotatable=0;points=[[0,0.5],[1,0.5]];portConstraint=eastwest;whiteSpace=wrap;html=1;" parent="kuucGT2VcDPwkF9G9a3E-1" vertex="1">
          <mxGeometry y="78" width="140" height="26" as="geometry" />
        </mxCell>
        <mxCell id="kuucGT2VcDPwkF9G9a3E-5" style="edgeStyle=orthogonalEdgeStyle;rounded=0;orthogonalLoop=1;jettySize=auto;html=1;exitX=0;exitY=0.5;exitDx=0;exitDy=0;entryX=1;entryY=0.5;entryDx=0;entryDy=0;" parent="WIyWlLk6GJQsqaUBKTNV-1" source="kuucGT2VcDPwkF9G9a3E-3" target="2UTO8eHYLIyQ8lcOq1nl-26" edge="1">
          <mxGeometry relative="1" as="geometry" />
        </mxCell>
        <mxCell id="kuucGT2VcDPwkF9G9a3E-6" style="edgeStyle=orthogonalEdgeStyle;rounded=0;orthogonalLoop=1;jettySize=auto;html=1;exitX=0;exitY=0.5;exitDx=0;exitDy=0;entryX=0;entryY=0.5;entryDx=0;entryDy=0;" parent="WIyWlLk6GJQsqaUBKTNV-1" source="kuucGT2VcDPwkF9G9a3E-4" target="aSxI8BKwE8xpwClNQIL9-5" edge="1">
          <mxGeometry relative="1" as="geometry">
            <Array as="points">
              <mxPoint x="775" y="-649" />
              <mxPoint x="775" y="-590" />
              <mxPoint x="990" y="-590" />
              <mxPoint x="990" y="-701" />
            </Array>
          </mxGeometry>
        </mxCell>
        <mxCell id="PodPdc2mG8BV511WwIqK-1" style="edgeStyle=orthogonalEdgeStyle;rounded=0;orthogonalLoop=1;jettySize=auto;html=1;exitX=0;exitY=0.5;exitDx=0;exitDy=0;entryX=0;entryY=0.5;entryDx=0;entryDy=0;" parent="WIyWlLk6GJQsqaUBKTNV-1" source="PodPdc2mG8BV511WwIqK-0" target="aSxI8BKwE8xpwClNQIL9-1" edge="1">
          <mxGeometry relative="1" as="geometry" />
        </mxCell>
        <mxCell id="I0QxBhNrl2gDApgBMMS6-0" style="edgeStyle=orthogonalEdgeStyle;rounded=0;orthogonalLoop=1;jettySize=auto;html=1;exitX=0;exitY=0.5;exitDx=0;exitDy=0;entryX=0;entryY=0.5;entryDx=0;entryDy=0;" parent="WIyWlLk6GJQsqaUBKTNV-1" source="aSxI8BKwE8xpwClNQIL9-17" target="2UTO8eHYLIyQ8lcOq1nl-18" edge="1">
          <mxGeometry relative="1" as="geometry">
            <Array as="points">
              <mxPoint x="780" y="-329" />
              <mxPoint x="780" y="-100" />
              <mxPoint x="1330" y="-100" />
            </Array>
          </mxGeometry>
        </mxCell>
      </root>
    </mxGraphModel>
  </diagram>
</mxfile>
